<?xml version="1.0" encoding="UTF-8"?><svg id="a" xmlns="http://www.w3.org/2000/svg" width="400" height="165" viewBox="0 0 400 165"><path d="M199.45,94.6l10.58-11.78c4.36,4.8,8.62,7.63,13.96,7.63,6.33,0,10.25-3.82,10.25-12.65V28.62h17.23v49.95c0,9.05-2.62,15.81-7.2,20.39-4.69,4.69-11.56,7.09-19.85,7.09-11.89,0-19.74-5.23-24.97-11.45" style="fill:#fff;"/><path d="M268.59,28.62h31.19c18.21,0,29.23,10.8,29.23,26.39v.22c0,17.67-13.74,26.83-30.86,26.83h-12.76v22.9h-16.8V28.62ZM298.69,67.12c8.4,0,13.3-5.02,13.3-11.56v-.22c0-7.52-5.23-11.56-13.63-11.56h-12.98v23.34h13.3Z" style="fill:#fff;"/><polygon points="341.43 28.62 399.56 28.62 399.56 43.89 358.23 43.89 358.23 60.14 394.65 60.14 394.65 75.41 358.23 75.41 358.23 104.96 341.43 104.96 341.43 28.62" style="fill:#fff;"/><path d="M201,125.29h5.37c1.52,0,2.7.45,3.48,1.21.64.65,1,1.55,1,2.6v.03c0,1.98-1.19,3.17-2.86,3.65l3.26,4.57h-2.52l-2.96-4.2h-2.65v4.2h-2.12v-12.06ZM206.5,124.29h-1.96l-2.08-2.33h1.76l1.33.98,1.33-.98h1.72l-2.08,2.33ZM206.22,131.27c1.52,0,2.48-.79,2.48-2.02v-.03c0-1.29-.93-2-2.5-2h-3.08v4.05h3.1Z" style="fill:#fff;"/><path d="M220.47,125.29h2.12v12.06h-2.12v-12.06ZM222.63,121.79l1.9.83-2.2,1.67h-1.62l1.93-2.5Z" style="fill:#fff;"/><path d="M232.71,125.29h4.5c3.79,0,6.41,2.6,6.41,5.99v.03c0,3.39-2.62,6.03-6.41,6.03h-4.5v-12.06ZM234.83,127.22v8.2h2.38c2.53,0,4.19-1.71,4.19-4.07v-.04c0-2.36-1.65-4.1-4.19-4.1h-2.38Z" style="fill:#fff;"/><path d="M253.2,125.29h2.12v12.06h-2.12v-12.06ZM255.35,121.79l1.9.83-2.2,1.67h-1.62l1.93-2.5Z" style="fill:#fff;"/><polygon points="265.43 125.29 267.69 125.29 271.35 130.99 275.02 125.29 277.28 125.29 277.28 137.35 275.16 137.35 275.16 128.7 271.35 134.38 271.29 134.38 267.51 128.73 267.51 137.35 265.43 137.35 265.43 125.29" style="fill:#fff;"/><polygon points="287.28 125.29 296.22 125.29 296.22 127.18 289.4 127.18 289.4 130.32 295.44 130.32 295.44 132.21 289.4 132.21 289.4 135.45 296.3 135.45 296.3 137.35 287.28 137.35 287.28 125.29" style="fill:#fff;"/><polygon points="317.78 125.29 326.75 125.29 326.75 127.22 319.89 127.22 319.89 130.51 325.98 130.51 325.98 132.44 319.89 132.44 319.89 137.35 317.78 137.35 317.78 125.29" style="fill:#fff;"/><rect x="336.09" y="125.29" width="2.12" height="12.06" style="fill:#fff;"/><path d="M348.33,125.29h5.37c1.52,0,2.7.45,3.48,1.21.64.65,1,1.55,1,2.6v.03c0,1.98-1.19,3.17-2.86,3.65l3.26,4.57h-2.52l-2.96-4.2h-2.65v4.2h-2.12v-12.06ZM353.55,131.27c1.52,0,2.48-.79,2.48-2.02v-.03c0-1.29-.93-2-2.5-2h-3.08v4.05h3.1Z" style="fill:#fff;"/><polygon points="367.68 125.29 369.93 125.29 373.6 130.99 377.27 125.29 379.53 125.29 379.53 137.35 377.41 137.35 377.41 128.7 373.6 134.38 373.53 134.38 369.76 128.73 369.76 137.35 367.68 137.35 367.68 125.29" style="fill:#fff;"/><polygon points="393.08 132.59 388.29 125.29 390.8 125.29 394.16 130.61 397.57 125.29 400 125.29 395.21 132.54 395.21 137.35 393.08 137.35 393.08 132.59" style="fill:#fff;"/><path d="M29.82,136.08c-.35-.34-.69-.69-1.03-1.04-9-9.67-8.72-26.43-.89-44.55,5.34,8.86,12.22,17.69,20.55,26.02,5.31,5.31,10.83,10.04,16.44,14.15,9.05,6.65,18.3,11.67,27.24,14.97,7.95,2.93,15.64,4.52,22.72,4.6-5.37,2.58-11.05,4.6-17.03,5.85l-.52.1c-2.28.46-4.59.82-6.94,1.06l-.68.06c-2.38.23-4.78.37-7.22.37s-4.82-.14-7.2-.37l-.71-.06c-2.34-.25-4.65-.6-6.92-1.06l-.54-.11c-6.06-1.26-11.81-3.33-17.24-5.96,7.06-.07,15.59-2.07,23.82-5.11l-7.79-4.84c-6.74,2.49-12.4,3.64-17.3,3.64h0c-7.7,0-13.53-2.83-18.74-7.73M141.41,82.5c5.64-11.34,8.65-22.47,8.77-32.39,2.58,5.37,4.61,11.06,5.86,17.04l.1.5c.46,2.28.82,4.6,1.06,6.96l.05.66c.23,2.38.37,4.79.37,7.23s-.14,4.85-.37,7.23l-.05.65c-.25,2.36-.61,4.68-1.07,6.97l-.1.48c-1.25,5.99-3.28,11.67-5.86,17.05-.12-9.92-3.12-21.05-8.77-32.39M8.87,97.87l-.11-.55c-.46-2.27-.81-4.58-1.06-6.92l-.06-.69c-.23-2.38-.37-4.78-.37-7.21h0c0-2.44.14-4.84.37-7.22l.06-.69c.24-2.34.6-4.65,1.06-6.92l.11-.55c1.25-5.97,3.27-11.65,5.85-17.02.11,9.92,3.12,21.05,8.76,32.39-5.64,11.34-8.65,22.48-8.76,32.39-2.58-5.37-4.6-11.04-5.85-17.02M99.07,140.28c-9.18-2.79-18.97-7.72-28.57-14.56-5.77-4.12-11.47-8.92-16.92-14.36-9.18-9.18-16.54-19.09-21.85-28.86,5.31-9.77,12.68-19.68,21.85-28.86,28.94-28.95,65.15-39.89,81.38-24.82.39.38.78.77,1.17,1.16,8.98,9.67,8.69,26.42.88,44.53-5.34-8.86-12.22-17.7-20.55-26.02-7.7-7.7-9.92-10.39-18.66-15.76l-8.08,3.49c8.25,5.08,14.28,10.12,21.59,17.42,9.18,9.18,16.54,19.09,21.85,28.86-5.31,9.77-12.68,19.68-21.85,28.86-7,7-13.61,12.47-21.48,17.43l8.04,3.44c8.33-5.25,11.2-8.34,18.58-15.72,8.33-8.33,15.21-17.16,20.55-26.02,7.81,18.09,8.1,34.83-.84,44.5-.4.4-.79.8-1.2,1.2-4.93,4.57-11.7,6.75-19.55,6.75-5.07,0-10.58-.9-16.34-2.65M73.42,20.02c-8.08-2.95-16.64-5.07-23.59-5.13,5.43-2.63,11.18-4.69,17.23-5.96l.58-.11c2.27-.46,4.57-.81,6.9-1.06l.72-.06c2.38-.22,4.77-.37,7.19-.37s4.84.14,7.22.37l.68.06c2.35.25,4.66.6,6.94,1.06l.52.1c5.98,1.25,11.66,3.27,17.03,5.85-19.96.24-44.87,12.21-66.39,33.72-8.32,8.33-15.21,17.16-20.55,26.02-7.82-18.12-8.11-34.89.89-44.55.34-.35.69-.7,1.04-1.04,8.46-7.95,19.68-10.94,36.84-4.68l6.76-4.22ZM74.63.43l-.52.04c-2.37.24-4.72.6-7.04,1.04-.4.08-.81.14-1.21.22-2.08.42-4.12.96-6.15,1.54-.78.22-1.56.45-2.32.69-1.65.52-3.27,1.12-4.88,1.74-1.1.43-2.18.88-3.26,1.35-1.29.57-2.57,1.17-3.83,1.81-1.21.61-2.41,1.25-3.58,1.92-1.14.65-2.26,1.32-3.37,2.02-1.12.71-2.23,1.45-3.31,2.21-1.17.83-2.33,1.68-3.46,2.57-.92.72-1.82,1.45-2.7,2.2-1.26,1.08-2.5,2.2-3.7,3.36-.38.36-.79.68-1.16,1.05-.37.37-.68.78-1.04,1.15-1.17,1.22-2.31,2.47-3.39,3.74-.73.86-1.45,1.74-2.15,2.63-.92,1.17-1.8,2.36-2.65,3.57-.73,1.05-1.44,2.11-2.13,3.19-.73,1.16-1.44,2.33-2.11,3.52-.64,1.13-1.25,2.27-1.84,3.44-.66,1.31-1.3,2.64-1.89,3.99-.45,1.02-.87,2.05-1.28,3.09-.65,1.66-1.26,3.33-1.8,5.02-.23.73-.44,1.46-.65,2.19-.59,2.05-1.13,4.11-1.55,6.21-.08.38-.13.77-.21,1.16-.44,2.34-.81,4.69-1.05,7.08l-.04.5c-.24,2.59-.38,5.2-.38,7.83h0c0,2.64.14,5.25.38,7.83l.04.5c.24,2.39.61,4.74,1.05,7.08.07.39.13.78.21,1.16.43,2.1.97,4.16,1.55,6.21.21.73.42,1.47.65,2.19.54,1.7,1.15,3.36,1.8,5.02.41,1.04.83,2.07,1.28,3.09.59,1.35,1.22,2.68,1.89,3.99.59,1.16,1.2,2.31,1.84,3.43.67,1.19,1.38,2.36,2.11,3.52.69,1.08,1.39,2.14,2.13,3.19.85,1.21,1.73,2.4,2.65,3.57.7.89,1.41,1.77,2.15,2.63,1.09,1.28,2.22,2.52,3.39,3.74.36.37.67.78,1.04,1.15.37.37.78.69,1.16,1.05,1.2,1.16,2.44,2.28,3.7,3.36.88.75,1.78,1.49,2.7,2.21,1.13.89,2.29,1.75,3.46,2.57,1.09.76,2.19,1.5,3.31,2.21,1.11.7,2.23,1.38,3.37,2.02,1.18.67,2.37,1.31,3.58,1.92,1.26.64,2.53,1.24,3.83,1.81,1.07.47,2.16.92,3.26,1.35,1.61.63,3.23,1.22,4.88,1.74.77.25,1.54.47,2.32.69,2.03.58,4.07,1.12,6.15,1.54.4.08.81.14,1.21.21,2.32.44,4.67.8,7.04,1.04l.52.04c2.58.24,5.19.38,7.82.38s5.23-.14,7.81-.38l.52-.04c2.37-.24,4.72-.6,7.04-1.04.4-.08.81-.13,1.21-.21,2.08-.42,4.12-.96,6.14-1.54.78-.22,1.56-.45,2.34-.7,1.64-.52,3.26-1.12,4.86-1.74,1.1-.43,2.19-.88,3.26-1.35,1.29-.57,2.56-1.17,3.82-1.81,1.22-.61,2.41-1.26,3.59-1.93,1.13-.64,2.25-1.31,3.36-2.01,1.13-.71,2.24-1.45,3.33-2.22,1.17-.82,2.32-1.67,3.44-2.56.92-.72,1.83-1.46,2.71-2.22,1.26-1.07,2.48-2.19,3.68-3.34.38-.37.79-.69,1.17-1.06l.03-.03c.37-.38.69-.79,1.06-1.17,1.15-1.2,2.27-2.43,3.35-3.7.74-.87,1.47-1.77,2.18-2.67.9-1.15,1.76-2.31,2.59-3.49.75-1.07,1.48-2.16,2.18-3.27.71-1.12,1.39-2.26,2.05-3.41.66-1.16,1.29-2.34,1.89-3.54.64-1.28,1.26-2.56,1.83-3.87.47-1.06.91-2.13,1.33-3.21.63-1.62,1.23-3.25,1.75-4.91.24-.76.46-1.53.68-2.3.58-2.03,1.11-4.07,1.54-6.14.08-.4.14-.81.22-1.21.43-2.32.8-4.66,1.04-7.03l.04-.52c.24-2.58.38-5.18.38-7.8h0c0-2.64-.14-5.24-.38-7.82l-.04-.52c-.24-2.38-.61-4.72-1.04-7.05-.08-.39-.13-.8-.21-1.19-.42-2.08-.96-4.14-1.54-6.17-.22-.76-.44-1.52-.67-2.27-.53-1.67-1.13-3.32-1.77-4.95-.42-1.06-.85-2.12-1.31-3.16-.58-1.33-1.21-2.64-1.86-3.93-.6-1.18-1.22-2.34-1.87-3.49-.66-1.17-1.36-2.33-2.08-3.47-.7-1.1-1.41-2.17-2.16-3.23-.84-1.2-1.72-2.38-2.62-3.54-.71-.9-1.43-1.78-2.17-2.65-1.08-1.27-2.2-2.51-3.37-3.72-.37-.38-.68-.79-1.05-1.16-.37-.37-.79-.69-1.17-1.06-1.2-1.16-2.43-2.27-3.68-3.34-.89-.76-1.79-1.5-2.71-2.22-1.13-.89-2.28-1.74-3.44-2.56-1.09-.77-2.2-1.51-3.33-2.22-1.1-.7-2.22-1.37-3.36-2.01-1.18-.67-2.38-1.31-3.59-1.93-1.26-.63-2.53-1.24-3.82-1.81-1.07-.47-2.16-.92-3.26-1.35-1.61-.62-3.22-1.22-4.86-1.74-.77-.25-1.56-.47-2.34-.7-2.03-.58-4.07-1.11-6.14-1.53-.4-.08-.81-.14-1.21-.22-2.32-.44-4.67-.8-7.04-1.04l-.52-.04c-2.58-.24-5.19-.38-7.81-.38s-5.23.14-7.82.38" style="fill:#fff;"/></svg>